<svg width="501" height="501" viewBox="0 0 501 501" fill="none" xmlns="http://www.w3.org/2000/svg">
<path d="M451 339H116C93.9086 339 76 359.723 76 385.286V454.714C76 480.277 93.9086 501 116 501H451C473.091 501 491 480.277 491 454.714V385.286C491 359.723 473.091 339 451 339Z" fill="black"/>
<path d="M461 14H126C103.909 14 86 34.7228 86 60.2857V129.714C86 155.277 103.909 176 126 176H461C483.091 176 501 155.277 501 129.714V60.2857C501 34.7228 483.091 14 461 14Z" fill="black"/>
<path d="M447 0H112C89.9086 0 72 20.7228 72 46.2857V115.714C72 141.277 89.9086 162 112 162H447C469.091 162 487 141.277 487 115.714V46.2857C487 20.7228 469.091 0 447 0Z" fill="#FF8134"/>
<path d="M391 175H56C33.9086 175 16 195.723 16 221.286V290.714C16 316.277 33.9086 337 56 337H391C413.091 337 431 316.277 431 290.714V221.286C431 195.723 413.091 175 391 175Z" fill="black"/>
<path d="M375 162H40C17.9086 162 0 182.723 0 208.286V277.714C0 303.277 17.9086 324 40 324H375C397.091 324 415 303.277 415 277.714V208.286C415 182.723 397.091 162 375 162Z" fill="#FFB647"/>
<path d="M434 324H99C76.9086 324 59 344.723 59 370.286V439.714C59 465.277 76.9086 486 99 486H434C456.091 486 474 465.277 474 439.714V370.286C474 344.723 456.091 324 434 324Z" fill="#FF8134"/>
<path d="M256 0H223.003V140.571V351.429C223.003 429.064 222.996 492 223.003 492H256V351.429V140.571V0Z" fill="black"/>
</svg>
