<svg width="627" height="221" viewBox="0 0 627 221" fill="none" xmlns="http://www.w3.org/2000/svg">
<rect x="58" y="49" width="548" height="143" rx="10" fill="black"/>
<rect x="45" y="34" width="548" height="143" rx="10" fill="#FFE6D7"/>
<path d="M149.47 115H44.5301C37.6099 115 32 121.396 32 129.286V150.714C32 158.604 37.6099 165 44.5301 165H149.47C156.39 165 162 158.604 162 150.714V129.286C162 121.396 156.39 115 149.47 115Z" fill="black"/>
<path d="M149.47 12H44.5301C37.6099 12 32 18.3959 32 26.2857V47.7143C32 55.6041 37.6099 62 44.5301 62H149.47C156.39 62 162 55.6041 162 47.7143V26.2857C162 18.3959 156.39 12 149.47 12Z" fill="black"/>
<path d="M137.663 3H34.3373C27.5236 3 22 9.39593 22 17.2857V38.7143C22 46.6041 27.5236 53 34.3373 53H137.663C144.476 53 150 46.6041 150 38.7143V17.2857C150 9.39593 144.476 3 137.663 3Z" fill="#FF8134"/>
<path d="M128.663 62H25.3373C18.5236 62 13 68.3959 13 76.2857V97.7143C13 105.604 18.5236 112 25.3373 112H128.663C135.476 112 141 105.604 141 97.7143V76.2857C141 68.3959 135.476 62 128.663 62Z" fill="black"/>
<path d="M117.47 53H12.5301C5.60993 53 0 59.3959 0 67.2857V88.7143C0 96.6041 5.60993 103 12.5301 103H117.47C124.39 103 130 96.6041 130 88.7143V67.2857C130 59.3959 124.39 53 117.47 53Z" fill="#FFB647"/>
<path d="M137.663 103H34.3373C27.5236 103 22 109.396 22 117.286V138.714C22 146.604 27.5236 153 34.3373 153H137.663C144.476 153 150 146.604 150 138.714V117.286C150 109.396 144.476 103 137.663 103Z" fill="#FF8134"/>
<path d="M89 0H72.0017V44.5714V111.429C72.0017 136.045 71.9978 156 72.0018 156H89V111.429V44.5714V0Z" fill="black"/>
<path d="M185.99 130.72C183.29 130.72 180.56 130.45 177.8 129.91C175.04 129.37 172.55 128.62 170.33 127.66L172.94 116.32C174.32 117.04 176.21 117.67 178.61 118.21C181.01 118.69 183.14 118.93 185 118.93C188 118.93 189.5 118.12 189.5 116.5C189.5 115.72 189.02 115.15 188.06 114.79C187.16 114.43 185.96 114.13 184.46 113.89C183.02 113.59 181.46 113.23 179.78 112.81C178.1 112.33 176.51 111.64 175.01 110.74C173.57 109.78 172.37 108.43 171.41 106.69C170.51 104.95 170.06 102.67 170.06 99.85C170.06 95.11 171.92 91.33 175.64 88.51C179.42 85.69 184.58 84.28 191.12 84.28C193.64 84.28 195.98 84.46 198.14 84.82C200.36 85.18 202.46 85.93 204.44 87.07L202.55 98.05C199.37 96.73 196.04 96.07 192.56 96.07C190.34 96.07 188.72 96.25 187.7 96.61C186.74 96.97 186.26 97.57 186.26 98.41C186.26 99.07 186.74 99.58 187.7 99.94C188.66 100.3 189.89 100.66 191.39 101.02C192.95 101.32 194.57 101.77 196.25 102.37C197.93 102.91 199.52 103.69 201.02 104.71C202.58 105.73 203.84 107.11 204.8 108.85C205.76 110.53 206.24 112.72 206.24 115.42C206.24 120.22 204.47 123.97 200.93 126.67C197.39 129.37 192.41 130.72 185.99 130.72ZM231.535 130H212.545V70.69L231.535 67.9V98.77L252.685 81.58L262.405 94.09L249.715 104.71C250.555 108.97 251.785 111.97 253.405 113.71C255.025 115.39 257.125 116.23 259.705 116.23C260.785 116.23 262.075 116.05 263.575 115.69L262.225 130.18C261.085 130.42 260.065 130.57 259.165 130.63C258.265 130.69 257.395 130.72 256.555 130.72C250.615 130.72 245.905 129.31 242.425 126.49C239.005 123.61 236.485 119.41 234.865 113.89L231.535 116.77V130ZM291.234 130.72C286.134 130.72 281.634 129.73 277.734 127.75C273.834 125.77 270.774 123.04 268.554 119.56C266.394 116.02 265.314 111.97 265.314 107.41C265.314 102.73 266.424 98.68 268.644 95.26C270.924 91.78 274.014 89.08 277.914 87.16C281.814 85.24 286.284 84.28 291.324 84.28C296.484 84.28 301.014 85.27 304.914 87.25C308.814 89.17 311.844 91.87 314.004 95.35C316.164 98.77 317.244 102.79 317.244 107.41C317.244 112.03 316.134 116.11 313.914 119.65C311.754 123.13 308.724 125.86 304.824 127.84C300.924 129.76 296.394 130.72 291.234 130.72ZM291.414 117.22C293.874 117.22 295.884 116.32 297.444 114.52C299.064 112.66 299.874 110.29 299.874 107.41C299.874 104.53 299.094 102.19 297.534 100.39C295.974 98.53 293.994 97.6 291.594 97.6C289.014 97.6 286.914 98.53 285.294 100.39C283.734 102.19 282.954 104.53 282.954 107.41C282.954 110.29 283.734 112.66 285.294 114.52C286.914 116.32 288.954 117.22 291.414 117.22ZM341.72 130.72C337.46 130.72 333.98 130 331.28 128.56C328.64 127.12 326.72 125.17 325.52 122.71C324.32 120.25 323.72 117.49 323.72 114.43V68.89L342.71 66.1V111.82C342.71 113.2 343.16 114.28 344.06 115.06C344.96 115.78 346.13 116.14 347.57 116.14C349.01 116.14 350.45 115.78 351.89 115.06L353.24 127.57C351.8 128.59 349.97 129.37 347.75 129.91C345.53 130.45 343.52 130.72 341.72 130.72ZM377.191 130.72C373.051 130.72 369.301 129.73 365.941 127.75C362.581 125.71 359.911 122.92 357.931 119.38C356.011 115.84 355.051 111.79 355.051 107.23C355.051 102.67 356.011 98.68 357.931 95.26C359.911 91.84 362.581 89.17 365.941 87.25C369.301 85.27 373.051 84.28 377.191 84.28C380.131 84.28 382.981 85.09 385.741 86.71C388.501 88.33 390.631 91 392.131 94.72V84.91H410.851V130H391.951V121.63C390.511 124.57 388.591 126.82 386.191 128.38C383.791 129.94 380.791 130.72 377.191 130.72ZM383.041 116.5C385.501 116.5 387.601 115.63 389.341 113.89C391.081 112.09 391.951 109.9 391.951 107.32C391.951 104.74 391.081 102.64 389.341 101.02C387.601 99.34 385.501 98.5 383.041 98.5C380.461 98.5 378.301 99.37 376.561 101.11C374.821 102.85 373.951 104.98 373.951 107.5C373.951 110.02 374.821 112.15 376.561 113.89C378.301 115.63 380.461 116.5 383.041 116.5ZM446.699 147.55C444.419 147.55 442.289 147.4 440.309 147.1C438.329 146.8 436.769 146.44 435.629 146.02L437.069 132.97C438.149 133.21 439.319 133.39 440.579 133.51C441.839 133.69 443.069 133.78 444.269 133.78C448.289 133.78 451.169 132.94 452.909 131.26C454.709 129.58 455.609 127 455.609 123.52V119.29C453.929 122.59 451.859 125.02 449.399 126.58C446.939 128.14 443.849 128.92 440.129 128.92C435.869 128.92 432.029 127.96 428.609 126.04C425.189 124.06 422.489 121.39 420.509 118.03C418.589 114.61 417.629 110.71 417.629 106.33C417.629 101.95 418.589 98.11 420.509 94.81C422.489 91.51 425.189 88.93 428.609 87.07C432.029 85.21 435.869 84.28 440.129 84.28C443.129 84.28 446.009 85.09 448.769 86.71C451.529 88.27 453.629 90.82 455.069 94.36V84.91H473.969V119.47C473.969 129.07 471.599 136.15 466.859 140.71C462.119 145.27 455.399 147.55 446.699 147.55ZM445.979 114.7C448.559 114.7 450.719 113.89 452.459 112.27C454.199 110.65 455.069 108.7 455.069 106.42C455.069 104.14 454.199 102.25 452.459 100.75C450.719 99.25 448.559 98.5 445.979 98.5C443.219 98.5 440.939 99.28 439.139 100.84C437.399 102.4 436.529 104.32 436.529 106.6C436.529 108.82 437.399 110.74 439.139 112.36C440.939 113.92 443.219 114.7 445.979 114.7ZM482.984 130V70.69L501.974 67.9V94.18C503.234 91.06 505.214 88.63 507.914 86.89C510.614 85.15 513.854 84.28 517.634 84.28C523.514 84.28 528.074 86.32 531.314 90.4C534.554 94.42 536.174 100.12 536.174 107.5V130H517.184V106.51C517.184 101.17 515.024 98.5 510.704 98.5C508.124 98.5 506.024 99.46 504.404 101.38C502.784 103.24 501.974 105.76 501.974 108.94V130H482.984Z" fill="black"/>
<g filter="url(#filter0_i_54_2)">
<circle cx="576.5" cy="170.5" r="50.5" fill="#070000"/>
</g>
<circle cx="576.5" cy="170.5" r="50.3" stroke="#161212" stroke-width="0.4"/>
<g filter="url(#filter1_i_54_2)">
<circle cx="569.5" cy="164.5" r="50.5" fill="white"/>
</g>
<circle cx="569.5" cy="164.5" r="50.3" stroke="#161212" stroke-width="0.4"/>
<path d="M546.12 175.28L532.68 169.232V164.528L546.12 158.48V162.68L536.152 166.88L546.12 171.08V175.28ZM554.412 175V156.548L560.32 155.68V163.856C560.712 162.885 561.328 162.129 562.168 161.588C563.008 161.047 564.016 160.776 565.192 160.776C567.021 160.776 568.44 161.411 569.448 162.68C570.456 163.931 570.96 165.704 570.96 168V175H565.052V167.692C565.052 166.031 564.38 165.2 563.036 165.2C562.233 165.2 561.58 165.499 561.076 166.096C560.572 166.675 560.32 167.459 560.32 168.448V175H554.412ZM573.551 175V170.912H575.903V161.224H573.551V157.556C574.354 157.556 575.231 157.407 576.183 157.108C577.135 156.809 578.068 156.352 578.983 155.736H581.923V170.912H584.275V175H573.551ZM591.551 175.28V171.08L601.519 166.88L591.551 162.68V158.48L604.991 164.528V169.232L591.551 175.28Z" fill="black"/>
<path d="M559.3 54.1133C560.017 54.4871 560.016 55.5129 559.3 55.8867L539.212 66.3618C538.547 66.7089 537.75 66.2259 537.75 65.4751V44.5249C537.75 43.7741 538.547 43.2911 539.212 43.6382L559.3 54.1133Z" fill="white"/>
<path d="M555.3 50.1133C556.017 50.4871 556.016 51.5129 555.3 51.8867L535.212 62.3618C534.547 62.7089 533.75 62.2259 533.75 61.4751V40.5249C533.75 39.7741 534.547 39.2911 535.212 39.6382L555.3 50.1133Z" fill="black"/>
<rect x="564" y="47" width="24" height="13" rx="5" fill="white"/>
<rect x="561" y="44" width="24" height="13" rx="5" fill="black"/>
<defs>
<filter id="filter0_i_54_2" x="526" y="120" width="101" height="101" filterUnits="userSpaceOnUse" color-interpolation-filters="sRGB">
<feFlood flood-opacity="0" result="BackgroundImageFix"/>
<feBlend mode="normal" in="SourceGraphic" in2="BackgroundImageFix" result="shape"/>
<feColorMatrix in="SourceAlpha" type="matrix" values="0 0 0 0 0 0 0 0 0 0 0 0 0 0 0 0 0 0 127 0" result="hardAlpha"/>
<feMorphology radius="0.4" operator="erode" in="SourceAlpha" result="effect1_innerShadow_54_2"/>
<feOffset/>
<feGaussianBlur stdDeviation="5"/>
<feComposite in2="hardAlpha" operator="arithmetic" k2="-1" k3="1"/>
<feColorMatrix type="matrix" values="0 0 0 0 0 0 0 0 0 0 0 0 0 0 0 0 0 0 0.2 0"/>
<feBlend mode="normal" in2="shape" result="effect1_innerShadow_54_2"/>
</filter>
<filter id="filter1_i_54_2" x="519" y="114" width="101" height="101" filterUnits="userSpaceOnUse" color-interpolation-filters="sRGB">
<feFlood flood-opacity="0" result="BackgroundImageFix"/>
<feBlend mode="normal" in="SourceGraphic" in2="BackgroundImageFix" result="shape"/>
<feColorMatrix in="SourceAlpha" type="matrix" values="0 0 0 0 0 0 0 0 0 0 0 0 0 0 0 0 0 0 127 0" result="hardAlpha"/>
<feMorphology radius="0.4" operator="erode" in="SourceAlpha" result="effect1_innerShadow_54_2"/>
<feOffset/>
<feGaussianBlur stdDeviation="5"/>
<feComposite in2="hardAlpha" operator="arithmetic" k2="-1" k3="1"/>
<feColorMatrix type="matrix" values="0 0 0 0 0 0 0 0 0 0 0 0 0 0 0 0 0 0 0.2 0"/>
<feBlend mode="normal" in2="shape" result="effect1_innerShadow_54_2"/>
</filter>
</defs>
</svg>
